# xmcd CD database file
#
# Track frame offsets:
#	150
#	10893
#	22662
#	31779
#	45695
#	56142
#	66716
#	81843
#	90742
#	101206
#	113432
#	128386
#	141590
#	156359
#	168245
#	181782
#	195511
#	207820
#	222311
#	234818
#	249782
#	263268
#	274867
#	288863
#	300557
#
# Disc length: 4181 seconds
#
# Revision: 2
# Processed by: cddbd v1.5.2PL0 Copyright (c) Steve Scherf et al.
# Submitted via: CDex 1.51
#
DISCID=48105319
DTITLE=Louis Armstrong - Christmas
DYEAR=2004
DGENRE=Jazz
TTITLE0=Silent Night (Dinah Washington)
TTITLE1=Jingle Bells (Frank Sinatra)
TTITLE2=O Cristmas Tree (Mario Lanza)
TTITLE3=White Christmas (Bing Crosby)
TTITLE4=Ring Those Christmas Bells (Peggy Lee)
TTITLE5=O Little Town of Betlehem (Dick Haymes)
TTITLE6=Twelve Days of Christmas (Bing Crosby)
TTITLE7=Deck The Halls (Mario Lanza)
TTITLE8=Adestes Fideles (Bing Crosby)
TTITLE9=The Lord's Prayer (Dinah Washington)
TTITLE10=White Christmas (Frank Sinatra)
TTITLE11=Winter Wonderland (Johnny Mercer)
TTITLE12=Silent Night (Frank Sinatra)
TTITLE13=White Christmas (Louis Armstrong)
TTITLE14=Christmas Dreaming (Frank Sinatra)
TTITLE15=Silver Bells (Bing Crosby)
TTITLE16=Have Yourself a Merry Little Christmas (Judy Graland)
TTITLE17=The Christmas Song (Nat King Cole)
TTITLE18=You Don't Have To Be A Santa Claus (Mills Brothers)
TTITLE19=The Christmas Spell (Peggy Lee)
TTITLE20=Winter Wonderland (Louis Armstrong)
TTITLE21=Santa Claus Is Coming To Town (Frank Sinatra)
TTITLE22=Santa Claus Got Stuck In My Chimney (Ella Fitzgerald)
TTITLE23=Let It Snow! Let It Snow! Let It Snow! (Frank Sinatra)
TTITLE24=I'll Be Home For Christmas (Bing Crosby)
EXTD=YEAR: 2004
EXTT0=
EXTT1=
EXTT2=
EXTT3=
EXTT4=
EXTT5=
EXTT6=
EXTT7=
EXTT8=
EXTT9=
EXTT10=
EXTT11=
EXTT12=
EXTT13=
EXTT14=
EXTT15=
EXTT16=
EXTT17=
EXTT18=
EXTT19=
EXTT20=
EXTT21=
EXTT22=
EXTT23=
EXTT24=
PLAYORDER=
